<svg id="Layer_1" data-name="Layer 1" xmlns="http://www.w3.org/2000/svg" viewBox="0 0 434.38 350.73"><defs><style>.cls-1{fill:#edb288;}.cls-2{fill:#758e29;}.cls-3{fill:#ffd169;}.cls-4{fill:#916643;}.cls-5{fill:#f94646;}.cls-6{fill:#f9b4b4;}.cls-7{fill:#f79494;}.cls-8{fill:#774320;}.cls-9{fill:#ffb600;}.cls-10{fill:#637710;}.cls-11{fill:#845939;}.cls-12{fill:#513321;}.cls-13{fill:#ffb93e;}.cls-14{fill:#dd9300;}.cls-15{fill:#d68003;}.cls-16{fill:#f7caa5;}.cls-17{fill:#eaba96;}.cls-18{fill:#409ba3;}.cls-19{fill:#2e6463;}</style></defs><title>save4food</title><g id="_Group_" data-name=" Group "><path class="cls-1" d="M424.83,246.93l0,.08-57,30.76-9.47,5A38.35,38.35,0,0,0,345.81,260l36.66-19.75,9.32-5c11.53-5.85,26.65.47,33,11.7Z" transform="translate(-38.81 -64.04)"/><path class="cls-1" d="M382,239.41l.45.84L345.81,260a38.23,38.23,0,0,0-25.39-9.58H309l30.48-16.58A35.23,35.23,0,0,1,382,239.41Z" transform="translate(-38.81 -64.04)"/><path class="cls-2" d="M380.6,171.92V158a12.42,12.42,0,0,0-12.43-12.43H184.74A12.42,12.42,0,0,0,172.31,158v13.92Z" transform="translate(-38.81 -64.04)"/><path class="cls-3" d="M389.05,194.29l-1.83,9.94L377.14,259a19.89,19.89,0,0,1-19.56,16.29H195.33A19.89,19.89,0,0,1,175.77,259l-10.08-54.8-1.83-9.94Z" transform="translate(-38.81 -64.04)"/><path class="cls-3" d="M282.67,64H270.24a7.46,7.46,0,0,0-7.46,7.46V167h27.34V71.5A7.45,7.45,0,0,0,282.67,64Z" transform="translate(-38.81 -64.04)"/><path class="cls-4" d="M320,88.9h-2.48a27.35,27.35,0,0,0-27.35,27.34v50.7h57.17v-50.7A27.34,27.34,0,0,0,320,88.9Z" transform="translate(-38.81 -64.04)"/><path class="cls-5" d="M216,108.53l-1.6-19.79A2.49,2.49,0,0,0,210.31,87l-19.49,16a2.48,2.48,0,0,0,.68,4.24L209,114l7.53,2Z" transform="translate(-38.81 -64.04)"/><path class="cls-6" d="M262.75,109.2v62.72l-60.4-5a42.77,42.77,0,0,1,60.4-57.74Z" transform="translate(-38.81 -64.04)"/><path class="cls-7" d="M262.75,109.2v63h-11.9V103.62A42.82,42.82,0,0,1,262.75,109.2Z" transform="translate(-38.81 -64.04)"/><path class="cls-8" d="M322.44,134.63h24.85V119.72H322.44a7.46,7.46,0,1,0,0,14.91Z" transform="translate(-38.81 -64.04)"/><path class="cls-8" d="M322.44,166.94h24.85V152H322.44a7.46,7.46,0,1,0,0,14.91Z" transform="translate(-38.81 -64.04)"/><path class="cls-9" d="M282.67,64H270.24a7.46,7.46,0,0,0-7.46,7.46V171.92h27.34V71.5A7.45,7.45,0,0,0,282.67,64Z" transform="translate(-38.81 -64.04)"/><path class="cls-10" d="M380.6,158v13.92h-9.94V158a12.42,12.42,0,0,0-12.43-12.43h9.94A12.42,12.42,0,0,1,380.6,158Z" transform="translate(-38.81 -64.04)"/><path class="cls-11" d="M347.29,116.24v50.7h-9.94v-50.7a27.33,27.33,0,0,0-23.61-27.09,27,27,0,0,1,3.73-.25H320A27.33,27.33,0,0,1,347.29,116.24Z" transform="translate(-38.81 -64.04)"/><path class="cls-12" d="M337.35,152h9.94v14.91h-9.94Z" transform="translate(-38.81 -64.04)"/><path class="cls-12" d="M337.35,119.72h9.94v14.91h-9.94Z" transform="translate(-38.81 -64.04)"/><path class="cls-13" d="M389.05,194.29l-112.6-7.21-112.59,7.21,1.83,9.94H377.28L367.19,259a19.88,19.88,0,0,1-19.55,16.29h9.94A19.89,19.89,0,0,0,377.14,259Z" transform="translate(-38.81 -64.04)"/><path class="cls-14" d="M392.53,194.29H160.38a7.46,7.46,0,0,1-7.46-7.46V174.4a7.46,7.46,0,0,1,7.46-7.46H392.53A7.46,7.46,0,0,1,400,174.4v12.43A7.46,7.46,0,0,1,392.53,194.29Z" transform="translate(-38.81 -64.04)"/><path class="cls-15" d="M400,174.4v12.43a7.46,7.46,0,0,1-7.46,7.46h-9.94a7.46,7.46,0,0,0,7.46-7.46V174.4a7.47,7.47,0,0,0-7.46-7.46h9.94A7.47,7.47,0,0,1,400,174.4Z" transform="translate(-38.81 -64.04)"/><path class="cls-16" d="M345.81,260a38.35,38.35,0,0,1,12.57,22.76l9.47-5,57-30.76,6.85-3.7a31.14,31.14,0,0,1,41.47,11.34l-134.4,92.29a94.13,94.13,0,0,1-58.53,8.26l-77.69-14.31a28.9,28.9,0,0,0-21.14,2.81l-42.07,26.6L110,273.88l.24-.07a50.54,50.54,0,0,0,24.39-11.94l12.87-11.45a86,86,0,0,1,89.18-8.71l5.33,2.58a61.51,61.51,0,0,0,26.75,6.13h51.69A38.23,38.23,0,0,1,345.81,260Z" transform="translate(-38.81 -64.04)"/><path class="cls-17" d="M358.86,294.85h-.27l-44.1-2a214,214,0,0,0-38.62,1.79,6,6,0,0,1-1.78-11.86l.14,0a224.43,224.43,0,0,1,40.8-1.89l37.21,1.68a32.46,32.46,0,0,0-31.82-26.12H268.73a67.84,67.84,0,0,1-29.36-6.73L234,247.11a79.73,79.73,0,0,0-82.77,8l-12.68,11.28a56.58,56.58,0,0,1-27.29,13.36,6,6,0,0,1-2.19-11.8,44.49,44.49,0,0,0,21.49-10.52l12.88-11.45.38-.32a91.67,91.67,0,0,1,95.4-9.31l5.33,2.58a55.88,55.88,0,0,0,24.13,5.53h51.69a44.38,44.38,0,0,1,44.44,44.34v.09a6,6,0,0,1-6,6Z" transform="translate(-38.81 -64.04)"/></g><path class="cls-18" d="M139.36,370.3l13.56,44.47H59.55L38.81,244.64h62.24L110,273.88Z" transform="translate(-38.81 -64.04)"/><path class="cls-19" d="M101.34,372.56A12.45,12.45,0,1,1,88.9,385h0A12.44,12.44,0,0,1,101.34,372.56Z" transform="translate(-38.81 -64.04)"/></svg>